<?xml version="1.0" encoding="utf-8"?>
<!-- Generator: Adobe Illustrator 17.1.0, SVG Export Plug-In . SVG Version: 6.00 Build 0)  -->
<!DOCTYPE svg PUBLIC "-//W3C//DTD SVG 1.1//EN" "http://www.w3.org/Graphics/SVG/1.1/DTD/svg11.dtd">
<svg version="1.1" xmlns="http://www.w3.org/2000/svg" xmlns:xlink="http://www.w3.org/1999/xlink" x="0px" y="0px"
	 viewBox="0 0 181.3 24.7" enable-background="new 0 0 181.3 24.7" xml:space="preserve">
<g id="Layer_1">
	<g>
		<g>
			<path fill="#007FA4" d="M0,4.2c-0.2-1.1,0.3-1.7,1.2-1.7h1.7c0.9,0,1.5,0.6,1.6,1.5l1.3,7.9c0.3,1.7,0.6,4.1,0.8,6.3
				c0.2-2.2,0.5-4.6,0.9-6.3l0.9-4.3c0.4-2,1.7-3.8,4.3-3.8c2.6,0,3.9,1.8,4.3,3.8l0.9,4.3c0.3,1.7,0.7,4.2,0.9,6.4
				c0.3-2.3,0.6-4.7,0.8-6.4l1.3-7.9c0.2-0.9,0.8-1.5,1.7-1.5h1.6c0.9,0,1.5,0.6,1.3,1.7l-3.7,18.5c-0.2,0.9-0.9,1.6-1.8,1.6h-2
				c-0.9,0-1.6-0.6-1.8-1.5L13,8.1c0-0.1-0.1-0.2-0.2-0.2s-0.1,0.1-0.2,0.2L9.4,22.7c-0.2,1-0.9,1.5-1.8,1.5h-2
				c-0.9,0-1.6-0.6-1.8-1.6L0,4.2z"/>
			<path fill="#007FA4" d="M26.2,14.5c0-3.6,2.5-6.9,6.9-6.9c4.4,0,6.9,3.5,6.9,6.9v2.3c0,0.5-0.4,0.8-0.8,0.8h-8.6v0.2
				c0,1.3,0.3,3.2,3,3.2c1.5,0,2.6-0.3,3.2-0.4c0.9-0.2,1.6,0,1.9,1l0.2,0.6c0.2,0.8-0.1,1.6-1,1.8c-0.6,0.2-2.3,0.7-4.1,0.7
				c-5.3,0-7.4-3.4-7.4-6.9V14.5z M35.6,14.5v-0.4c0-1.4-0.6-2.8-2.5-2.8s-2.5,1.4-2.5,2.8v0.4H35.6z"/>
			<path fill="#007FA4" d="M41.4,14.5c0-3.6,2.5-6.9,6.9-6.9c4.4,0,6.9,3.5,6.9,6.9v2.3c0,0.5-0.4,0.8-0.8,0.8h-8.6v0.2
				c0,1.3,0.3,3.2,3,3.2c1.5,0,2.6-0.3,3.2-0.4c0.9-0.2,1.6,0,1.9,1l0.2,0.6c0.2,0.8-0.1,1.6-1,1.8c-0.6,0.2-2.3,0.7-4.1,0.7
				c-5.3,0-7.4-3.4-7.4-6.9V14.5z M50.8,14.5v-0.4c0-1.4-0.6-2.8-2.5-2.8s-2.5,1.4-2.5,2.8v0.4H50.8z"/>
			<path fill="#007FA4" d="M56.7,4.2c-0.2-1.1,0.3-1.7,1.2-1.7h1.7c0.9,0,1.5,0.6,1.6,1.5l1.3,7.9c0.3,1.7,0.6,4.1,0.8,6.3
				c0.2-2.2,0.5-4.6,0.9-6.3l0.9-4.3c0.4-2,1.7-3.8,4.3-3.8c2.6,0,3.9,1.8,4.3,3.8l0.9,4.3c0.3,1.7,0.7,4.2,0.9,6.4
				c0.3-2.3,0.6-4.7,0.8-6.4l1.3-7.9C78,3,78.6,2.4,79.5,2.4H81c0.9,0,1.5,0.6,1.3,1.7l-3.7,18.5c-0.2,0.9-0.9,1.6-1.8,1.6h-2
				c-0.9,0-1.6-0.6-1.8-1.5L69.6,8.1c0-0.1-0.1-0.2-0.2-0.2s-0.1,0.1-0.2,0.2l-3.3,14.7c-0.2,1-0.9,1.5-1.8,1.5h-2
				c-0.9,0-1.6-0.6-1.8-1.6L56.7,4.2z"/>
			<path fill="#007FA4" d="M84.7,3.4c0-1.3,1.1-2.4,2.5-2.4c1.4,0,2.5,1,2.5,2.4s-1.1,2.4-2.5,2.4C85.8,5.8,84.7,4.8,84.7,3.4z
				 M85,9.5C85,8.6,85.6,8,86.5,8h1.4c0.9,0,1.5,0.6,1.5,1.5v13.3c0,0.9-0.6,1.5-1.5,1.5h-1.4c-0.9,0-1.5-0.6-1.5-1.5V9.5z"/>
			<path fill="#007FA4" d="M93.2,3.1c0-0.9,0.6-1.5,1.5-1.5h1.4c0.9,0,1.5,0.6,1.5,1.5v10.6l1.3-0.4c0.5-0.2,0.7-0.4,0.9-0.9
				l1.4-3.3c0.3-0.8,0.9-1.1,1.8-1.1h1.6c1,0,1.3,0.7,1,1.6l-2,4.6c-0.3,0.8-0.8,1.4-1.4,1.9l3.8,6.6c0.5,0.8,0.1,1.7-0.8,1.7h-1.6
				c-0.9,0-1.5-0.3-1.9-1.1l-3.1-5.8l-0.8,0.2v5.3c0,0.9-0.6,1.5-1.5,1.5h-1.4c-0.9,0-1.5-0.6-1.5-1.5V3.1z"/>
			<path fill="#007FA4" d="M108.2,3.4c0-1.3,1.1-2.4,2.5-2.4c1.4,0,2.5,1,2.5,2.4s-1.1,2.4-2.5,2.4C109.2,5.8,108.2,4.8,108.2,3.4z
				 M108.5,9.5c0-0.9,0.6-1.5,1.5-1.5h1.4c0.9,0,1.5,0.6,1.5,1.5v13.3c0,0.9-0.6,1.5-1.5,1.5H110c-0.9,0-1.5-0.6-1.5-1.5V9.5z"/>
			<path fill="#007FA4" d="M117.1,3.9c0-0.9,0.6-1.5,1.5-1.5h4.8c5.1,0,7.9,3.3,7.9,7.2c0,3.9-2.8,7.2-7.9,7.2h-1.8v6
				c0,0.9-0.6,1.5-1.5,1.5h-1.5c-0.9,0-1.5-0.6-1.5-1.5V3.9z M123.3,13c2.3,0,3.3-1.6,3.3-3.4c0-1.9-1.1-3.4-3.4-3.4h-1.7V13H123.3z
				"/>
			<path fill="#007FA4" d="M139.2,14.2h1.3v-0.3c0-1.7-0.5-2.7-2.4-2.7c-1.7,0-2.8,0.3-3,0.4c-0.9,0.2-1.6-0.1-1.8-1l-0.2-0.7
				c-0.2-0.9,0.3-1.6,1.1-1.8c0.6-0.2,1.9-0.6,3.9-0.6c4.4,0,6.8,2.6,6.8,6.2v9c0,0.9-0.5,1.5-1.4,1.5h-0.9c-0.9,0-1.4-0.2-1.5-1.2
				l0-0.2c-1,1.2-2.2,1.9-3.9,1.9c-3.3,0-5.4-2-5.4-5.3C131.7,15.5,135,14.2,139.2,14.2z M138,21c0.9,0,1.9-0.4,2.5-1.2v-2.4h-1
				c-1.8,0-3.4,0.2-3.4,2C136.2,20.4,136.8,21,138,21z"/>
			<path fill="#007FA4" d="M147.7,3.4c0-1.3,1.1-2.4,2.5-2.4c1.4,0,2.5,1,2.5,2.4s-1.1,2.4-2.5,2.4C148.7,5.8,147.7,4.8,147.7,3.4z
				 M147.9,9.5c0-0.9,0.6-1.5,1.5-1.5h1.4c0.9,0,1.5,0.6,1.5,1.5v13.3c0,0.9-0.6,1.5-1.5,1.5h-1.4c-0.9,0-1.5-0.6-1.5-1.5V9.5z"/>
			<path fill="#007FA4" d="M155.5,9.5c0-0.9,0.6-1.5,1.5-1.5h0.8c0.9,0,1.5,0.3,1.6,1.2l0,0.2c1.3-1.2,2.8-1.8,4.3-1.8
				c3.3,0,5.2,2,5.2,5.6v9.6c0,0.9-0.6,1.5-1.5,1.5H166c-0.9,0-1.5-0.6-1.5-1.5v-9.1c0-1.8-0.5-2.4-1.8-2.4c-1.1,0-1.9,0.5-2.9,1.4
				v10.1c0,0.9-0.6,1.5-1.5,1.5H157c-0.9,0-1.5-0.6-1.5-1.5V9.5z"/>
			<path fill="#007FA4" d="M172.4,11.1l-1.1-0.2c-1.1-0.2-1.5-0.4-1.5-1.3V9.2c0-0.9,0.6-1.2,1.5-1.2h1.1V4.5c0-0.9,0.6-1.5,1.5-1.5
				h1.4c0.9,0,1.5,0.6,1.5,1.5V8h2.2c0.9,0,1.5,0.4,1.5,1.3v0.5c0,0.9-0.6,1.3-1.5,1.3h-2.2v8c0,1.2,0.6,1.8,1.7,1.8
				c0.4,0,0.8,0,1.1-0.1c0.8-0.2,1.4,0,1.6,0.9l0.2,0.9c0.2,0.9-0.3,1.5-1.2,1.7c-0.5,0.1-1.2,0.2-1.9,0.2c-3.8,0-5.8-1.9-5.8-5.1
				V11.1z"/>
		</g>
		<g>
			<path fill="#FFFFFF" d="M0,3.1C-0.2,2,0.4,1.4,1.3,1.4h1.7c0.9,0,1.5,0.6,1.6,1.5l1.3,7.9c0.3,1.7,0.6,4.1,0.8,6.3
				c0.2-2.2,0.5-4.6,0.9-6.3l0.9-4.3c0.4-2,1.7-3.8,4.3-3.8c2.6,0,3.9,1.8,4.3,3.8l0.9,4.3c0.3,1.7,0.7,4.2,0.9,6.4
				c0.3-2.3,0.6-4.7,0.8-6.4l1.3-7.9c0.2-0.9,0.8-1.5,1.7-1.5h1.6c0.9,0,1.5,0.6,1.3,1.7l-3.7,18.5c-0.2,0.9-0.9,1.6-1.8,1.6h-2
				c-0.9,0-1.6-0.6-1.8-1.5L13,7c0-0.1-0.1-0.2-0.2-0.2S12.7,6.9,12.7,7L9.4,21.7c-0.2,1-0.9,1.5-1.8,1.5h-2c-0.9,0-1.6-0.6-1.8-1.6
				L0,3.1z"/>
			<path fill="#FFFFFF" d="M26.2,13.4c0-3.6,2.5-6.9,6.9-6.9c4.4,0,6.9,3.5,6.9,6.9v2.3c0,0.5-0.4,0.8-0.8,0.8h-8.6v0.2
				c0,1.3,0.3,3.2,3,3.2c1.5,0,2.6-0.3,3.2-0.4c0.9-0.2,1.6,0,1.9,1l0.2,0.6c0.2,0.8-0.1,1.6-1,1.8c-0.6,0.2-2.3,0.7-4.1,0.7
				c-5.3,0-7.4-3.4-7.4-6.9V13.4z M35.6,13.5v-0.4c0-1.4-0.6-2.8-2.5-2.8s-2.5,1.4-2.5,2.8v0.4H35.6z"/>
			<path fill="#FFFFFF" d="M41.4,13.4c0-3.6,2.5-6.9,6.9-6.9c4.4,0,6.9,3.5,6.9,6.9v2.3c0,0.5-0.4,0.8-0.8,0.8h-8.6v0.2
				c0,1.3,0.3,3.2,3,3.2c1.5,0,2.6-0.3,3.2-0.4c0.9-0.2,1.6,0,1.9,1l0.2,0.6c0.2,0.8-0.1,1.6-1,1.8c-0.6,0.2-2.3,0.7-4.1,0.7
				c-5.3,0-7.4-3.4-7.4-6.9V13.4z M50.8,13.5v-0.4c0-1.4-0.6-2.8-2.5-2.8s-2.5,1.4-2.5,2.8v0.4H50.8z"/>
			<path fill="#FFFFFF" d="M56.7,3.1C56.5,2,57,1.4,57.9,1.4h1.7c0.9,0,1.5,0.6,1.6,1.5l1.3,7.9c0.3,1.7,0.6,4.1,0.8,6.3
				c0.2-2.2,0.5-4.6,0.9-6.3l0.9-4.3c0.4-2,1.7-3.8,4.3-3.8c2.6,0,3.9,1.8,4.3,3.8l0.9,4.3c0.3,1.7,0.7,4.2,0.9,6.4
				c0.3-2.3,0.6-4.7,0.8-6.4l1.3-7.9C78,2,78.6,1.4,79.5,1.4H81c0.9,0,1.5,0.6,1.3,1.7l-3.7,18.5c-0.2,0.9-0.9,1.6-1.8,1.6h-2
				c-0.9,0-1.6-0.6-1.8-1.5L69.6,7c0-0.1-0.1-0.2-0.2-0.2S69.4,6.9,69.3,7l-3.3,14.7c-0.2,1-0.9,1.5-1.8,1.5h-2
				c-0.9,0-1.6-0.6-1.8-1.6L56.7,3.1z"/>
			<path fill="#FFFFFF" d="M84.7,2.4C84.7,1,85.8,0,87.2,0c1.4,0,2.5,1,2.5,2.4s-1.1,2.4-2.5,2.4C85.8,4.8,84.7,3.7,84.7,2.4z
				 M85,8.4c0-0.9,0.6-1.5,1.5-1.5h1.4c0.9,0,1.5,0.6,1.5,1.5v13.3c0,0.9-0.6,1.5-1.5,1.5h-1.4c-0.9,0-1.5-0.6-1.5-1.5V8.4z"/>
			<path fill="#FFFFFF" d="M93.2,2c0-0.9,0.6-1.5,1.5-1.5h1.4c0.9,0,1.5,0.6,1.5,1.5v10.6l1.3-0.4c0.5-0.2,0.7-0.4,0.9-0.9l1.4-3.3
				c0.3-0.8,0.9-1.1,1.8-1.1h1.6c1,0,1.3,0.7,1,1.6l-2,4.6c-0.3,0.8-0.8,1.4-1.4,1.9l3.8,6.6c0.5,0.8,0.1,1.7-0.8,1.7h-1.6
				c-0.9,0-1.5-0.3-1.9-1.1l-3.1-5.8l-0.8,0.2v5.3c0,0.9-0.6,1.5-1.5,1.5h-1.4c-0.9,0-1.5-0.6-1.5-1.5V2z"/>
			<path fill="#FFFFFF" d="M108.2,2.4c0-1.3,1.1-2.4,2.5-2.4c1.4,0,2.5,1,2.5,2.4s-1.1,2.4-2.5,2.4C109.2,4.8,108.2,3.7,108.2,2.4z
				 M108.5,8.4c0-0.9,0.6-1.5,1.5-1.5h1.4c0.9,0,1.5,0.6,1.5,1.5v13.3c0,0.9-0.6,1.5-1.5,1.5H110c-0.9,0-1.5-0.6-1.5-1.5V8.4z"/>
			<path fill="#FFFFFF" d="M117.1,2.9c0-0.9,0.6-1.5,1.5-1.5h4.8c5.1,0,7.9,3.3,7.9,7.2c0,3.9-2.8,7.2-7.9,7.2h-1.8v6
				c0,0.9-0.6,1.5-1.5,1.5h-1.5c-0.9,0-1.5-0.6-1.5-1.5V2.9z M123.3,12c2.3,0,3.3-1.6,3.3-3.4c0-1.9-1.1-3.4-3.4-3.4h-1.7V12H123.3z
				"/>
			<path fill="#FFFFFF" d="M139.2,13.2h1.3v-0.3c0-1.7-0.5-2.7-2.4-2.7c-1.7,0-2.8,0.3-3,0.4c-0.9,0.2-1.6-0.1-1.8-1l-0.2-0.7
				c-0.2-0.9,0.3-1.6,1.1-1.8c0.6-0.2,1.9-0.6,3.9-0.6c4.4,0,6.8,2.6,6.8,6.2v9c0,0.9-0.5,1.5-1.4,1.5h-0.9c-0.9,0-1.4-0.2-1.5-1.2
				l0-0.2c-1,1.2-2.2,1.9-3.9,1.9c-3.3,0-5.4-2-5.4-5.3C131.7,14.5,135,13.2,139.2,13.2z M138,19.9c0.9,0,1.9-0.4,2.5-1.2v-2.4h-1
				c-1.8,0-3.4,0.2-3.4,2C136.2,19.3,136.8,19.9,138,19.9z"/>
			<path fill="#FFFFFF" d="M147.7,2.4c0-1.3,1.1-2.4,2.5-2.4c1.4,0,2.5,1,2.5,2.4s-1.1,2.4-2.5,2.4C148.7,4.8,147.7,3.7,147.7,2.4z
				 M147.9,8.4c0-0.9,0.6-1.5,1.5-1.5h1.4c0.9,0,1.5,0.6,1.5,1.5v13.3c0,0.9-0.6,1.5-1.5,1.5h-1.4c-0.9,0-1.5-0.6-1.5-1.5V8.4z"/>
			<path fill="#FFFFFF" d="M155.5,8.4c0-0.9,0.6-1.5,1.5-1.5h0.8c0.9,0,1.5,0.3,1.6,1.2l0,0.2c1.3-1.2,2.8-1.8,4.3-1.8
				c3.3,0,5.2,2,5.2,5.6v9.6c0,0.9-0.6,1.5-1.5,1.5H166c-0.9,0-1.5-0.6-1.5-1.5v-9.1c0-1.8-0.5-2.4-1.8-2.4c-1.1,0-1.9,0.5-2.9,1.4
				v10.1c0,0.9-0.6,1.5-1.5,1.5H157c-0.9,0-1.5-0.6-1.5-1.5V8.4z"/>
			<path fill="#FFFFFF" d="M172.4,10.1l-1.1-0.2c-1.1-0.2-1.5-0.4-1.5-1.3V8.2c0-0.9,0.6-1.2,1.5-1.2h1.1V3.5c0-0.9,0.6-1.5,1.5-1.5
				h1.4c0.9,0,1.5,0.6,1.5,1.5v3.5h2.2c0.9,0,1.5,0.4,1.5,1.3v0.5c0,0.9-0.6,1.3-1.5,1.3h-2.2v8c0,1.2,0.6,1.8,1.7,1.8
				c0.4,0,0.8,0,1.1-0.1c0.8-0.2,1.4,0,1.6,0.9l0.2,0.9c0.2,0.9-0.3,1.5-1.2,1.7c-0.5,0.1-1.2,0.2-1.9,0.2c-3.8,0-5.8-1.9-5.8-5.1
				V10.1z"/>
		</g>
	</g>
</g>
<g id="Layer_2">
</g>
</svg>
